:SAMPLES-PER-SECOND 30
:FULLY-SPECIFIED
:DEGREES
417
root  -0.13439 38.3247 8.02885 178.433 -45.0142 174.668
RightUpLeg  -20.864 -6.51262 -4.11233
RightLeg  -2.86075 -12.5058 6.00585
RightFoot  -1.80072 -0.611425 7.06201
RightToes  0.00048216 0.542163 -0.142577
Spine  7.61559 -1.69942 -2.74717
Spine1  11.1323 -2.06567 -0.447915
HEad  0.260785 19.8301 -12.2012
LeftShoulder1  8.57969 -13.2717 -44.5496
LeftArm  -9.26407 10.2459 -24.2045
LeftForeArm  66.7631 -79.1648 -76.7868
LeftHand  -0.25398 0.0180481 5.50724
RightShoulder  4.80862 8.8143 33.0951
RightArm  -18.5882 -31.7711 25.1508
RightForeArm  61.3992 75.9898 119.386
RightHand  0.516022 -20.6514 -4.8524
LeftUpLeg  21.6534 4.54782 -6.21122
LeftLeg  10.3312 6.90058 -2.70982
LeftFoot  -21.2365 0.322836 2.25019
LeftToes  1.06244e-005 4.65856e-005 -8.18505e-006
418
root  -1.55456 37.9913 6.76869 178.726 -47.5816 174.581
RightUpLeg  -22.4284 -6.58313 -3.86848
RightLeg  0.21877 -11.1346 5.08018
RightFoot  -1.00649 -0.295756 3.41519
RightToes  0.00048216 0.542163 -0.142577
Spine  7.26847 -2.02577 -2.52483
Spine1  11.6402 -2.6894 0.488286
HEad  0.543805 18.5979 -12.5066
LeftShoulder1  8.60168 -13.2653 -44.6869
LeftArm  -8.88915 10.4787 -24.4258
LeftForeArm  66.2253 -79.1405 -76.2736
LeftHand  -0.25398 0.0180481 5.50724
RightShoulder  4.74252 8.75509 32.7452
RightArm  -17.8611 -31.5309 24.2365
RightForeArm  59.996 75.9337 119.527
RightHand  0.685781 -20.2114 -6.25838
LeftUpLeg  23.9143 5.87354 -4.68033
LeftLeg  12.0982 3.32359 -2.23667
LeftFoot  -21.1748 0.224513 1.14878
LeftToes  1.06244e-005 4.65856e-005 -8.18505e-006
419
root  -3.08606 37.7256 5.51406 177.636 -49.1424 176.253
RightUpLeg  -24.9218 -8.47529 -1.43623
RightLeg  7.82138 -8.28724 3.13545
RightFoot  3.92912 0.295042 -1.94293
RightToes  0.00048216 0.542163 -0.142577
Spine  7.52418 -2.37256 0.505463
Spine1  11.5471 -2.72806 -0.0340864
HEad  0.682373 17.7403 -12.883
LeftShoulder1  8.59494 -13.2169 -44.7852
LeftArm  -8.46017 11.4581 -24.5501
LeftForeArm  65.2811 -79.096 -75.5288
LeftHand  -0.25398 0.0180481 5.50724
RightShoulder  4.70468 8.70738 32.5869
RightArm  -16.6794 -31.4669 23.1347
RightForeArm  58.764 75.8572 119.835
RightHand  0.872744 -19.3276 -8.08305
LeftUpLeg  25.9121 8.35296 -1.41653
LeftLeg  14.611 -1.08012 -1.58655
LeftFoot  -20.4352 -0.0198091 -1.786
LeftToes  1.06244e-005 4.65856e-005 -8.18505e-006
420
root  -4.65438 37.5005 4.27681 176.301 -49.4186 178.508
RightUpLeg  -28.2586 -13.7112 3.33916
RightLeg  16.5498 -1.10814 0.520196
RightFoot  8.63342 0.991416 -5.35566
RightToes  0.00048216 0.542163 -0.142577
Spine  7.88899 -2.51275 4.65319
Spine1  11.1167 -2.06564 -1.6248
HEad  0.686532 17.3331 -13.4081
LeftShoulder1  8.65896 -13.241 -45.065
LeftArm  -8.33598 12.642 -24.6045
LeftForeArm  62.1027 -78.9262 -72.6188
LeftHand  -0.25398 0.0180481 5.50724
RightShoulder  4.76379 8.78697 32.8173
RightArm  -15.4733 -30.9823 22.0029
RightForeArm  56.9478 76.0306 118.451
RightHand  0.92599 -18.6199 -8.91994
LeftUpLeg  25.7444 10.6691 1.86722
LeftLeg  20.1508 -4.07621 -1.24036
LeftFoot  -17.2794 -0.202807 -6.23573
LeftToes  1.06244e-005 4.65856e-005 -8.18505e-006
421
root  -6.07401 37.3621 3.06316 175.495 -49.6682 -179.825
RightUpLeg  -30.2081 -13.4264 4.49772
RightLeg  23.9326 -0.865277 -0.809972
RightFoot  8.1912 1.23546 -6.86557
RightToes  0.00048216 0.542163 -0.142577
Spine  8.49034 -2.4848 7.02121
Spine1  10.9382 -1.60294 -2.0108
HEad  0.51932 17.2128 -13.897
LeftShoulder1  8.88082 -13.4365 -45.7098
LeftArm  -8.73345 13.4575 -24.3315
LeftForeArm  57.8536 -78.6432 -68.5633
LeftHand  -0.25398 0.0180481 5.50724
RightShoulder  4.89636 9.00876 33.1893
RightArm  -14.3745 -29.4449 21.0089
RightForeArm  52.5611 76.5614 113.841
RightHand  0.909421 -18.467 -8.87873
LeftUpLeg  21.6706 10.139 3.31174
LeftLeg  30.409 -2.11472 -0.923758
LeftFoot  -8.21449 0.294161 -9.24454
LeftToes  1.06244e-005 4.65856e-005 -8.18505e-006
422
root  -7.23512 37.2857 1.92705 173.673 -51.5617 -177.649
RightUpLeg  -30.106 -13.4361 4.77433
RightLeg  29.7366 -2.90318 -2.03521
RightFoot  3.69923 1.04946 -7.73568
RightToes  0.00048216 0.542163 -0.142577
Spine  10.2254 -2.95731 7.97524
Spine1  10.9833 -2.0246 -0.506329
HEad  0.415953 16.8146 -13.6669
LeftShoulder1  9.13919 -13.6962 -46.3513
LeftArm  -9.11864 13.5464 -23.6311
LeftForeArm  54.1492 -78.3361 -65.0094
LeftHand  -0.25398 0.0180481 5.50724
RightShoulder  5.00685 9.22452 33.3933
RightArm  -13.262 -27.3712 20.3273
RightForeArm  45.7098 77.1011 107.413
RightHand  0.951372 -18.3495 -9.31568
LeftUpLeg  14.6724 8.3901 4.89295
LeftLeg  43.5594 0.751958 1.21102
LeftFoot  5.53743 1.31164 -9.18215
LeftToes  1.06244e-005 4.65856e-005 -8.18505e-006
423
root  -8.25275 37.2395 0.876523 169.603 -54.7026 -173.808
RightUpLeg  -28.1618 -15.2907 5.92724
RightLeg  33.6265 -4.48183 -3.45446
RightFoot  -0.944163 0.710923 -7.83912
RightToes  0.00048216 0.542163 -0.142577
Spine  13.0632 -4.06357 9.782
Spine1  10.75 -2.74925 0.902935
HEad  0.721238 15.633 -12.3517
LeftShoulder1  9.24923 -13.8445 -46.5126
LeftArm  -8.92102 12.8858 -22.8054
LeftForeArm  50.5774 -77.9841 -61.6614
LeftHand  -0.25398 0.0180481 5.50724
RightShoulder  5.05744 9.32685 33.4732
RightArm  -12.169 -25.8717 20.0361
RightForeArm  39.0334 77.3745 102.227
RightHand  1.07073 -17.6408 -10.9026
LeftUpLeg  6.994 5.08417 6.83624
LeftLeg  56.1118 2.39854 4.30565
LeftFoot  14.6951 1.61084 -7.34349
LeftToes  1.06244e-005 4.65856e-005 -8.18505e-006
424
root  -9.37158 37.4534 -0.228985 165.846 -57.2668 -170.469
RightUpLeg  -24.7751 -17.4028 6.52803
RightLeg  35.0048 -5.21468 -4.18306
RightFoot  -4.19066 0.413028 -7.02858
RightToes  0.00048216 0.542163 -0.142577
Spine  15.0038 -4.7475 11.6864
Spine1  10.3908 -2.84095 0.75064
HEad  1.50512 13.7766 -10.5957
LeftShoulder1  9.22721 -13.8734 -46.3191
LeftArm  -8.50494 11.8945 -22.2619
LeftForeArm  46.7572 -77.533 -58.0109
LeftHand  -0.25398 0.0180481 5.50724
RightShoulder  5.08984 9.36505 33.607
RightArm  -11.2864 -25.2015 20.0554
RightForeArm  33.7239 77.4794 98.7821
RightHand  1.16892 -16.4938 -12.9081
LeftUpLeg  -0.280366 2.54191 7.91529
LeftLeg  65.3573 2.36067 6.24563
LeftFoot  15.0465 0.951364 -4.38104
LeftToes  1.06244e-005 4.65856e-005 -8.18505e-006
425
root  -10.589 37.8786 -1.40535 165.647 -58.7676 -170.096
RightUpLeg  -21.6377 -19.2314 5.86883
RightLeg  34.8324 -4.99518 -4.00134
RightFoot  -6.7961 0.187814 -5.89271
RightToes  0.00048216 0.542163 -0.142577
Spine  14.6883 -4.29332 11.8055
Spine1  10.6751 -2.27489 0.170291
HEad  2.61204 11.9079 -9.34809
LeftShoulder1  9.20688 -13.8746 -46.2111
LeftArm  -8.65876 11.3261 -22.0955
LeftForeArm  44.2243 -77.1623 -55.3225
LeftHand  -0.25398 0.0180481 5.50724
RightShoulder  5.12927 9.41273 33.7651
RightArm  -10.6147 -24.7251 20.2301
RightForeArm  28.687 77.5533 95.1119
RightHand  1.19713 -15.6314 -14.216
LeftUpLeg  -7.67291 1.98445 7.24679
LeftLeg  70.2001 1.84062 6.53151
LeftFoot  10.8937 0.25662 -1.66973
LeftToes  1.06244e-005 4.65856e-005 -8.18505e-006
426
root  -11.8222 38.2847 -2.57858 166.056 -59.3261 -170.592
RightUpLeg  -17.9926 -20.8165 4.9767
RightLeg  34.0408 -4.29561 -3.38788
RightFoot  -9.1082 0.0417325 -5.37014
RightToes  0.00048216 0.542163 -0.142577
Spine  14.644 -3.41918 11.33
Spine1  10.714 -1.38579 -0.141736
HEad  3.86857 10.5687 -8.81953
LeftShoulder1  9.18702 -13.8403 -46.2022
LeftArm  -9.42857 11.6668 -22.1349
LeftForeArm  44.3946 -77.1425 -55.0404
LeftHand  -0.25398 0.0180481 5.50724
RightShoulder  5.15881 9.45717 33.8561
RightArm  -9.97635 -24.0709 20.4615
RightForeArm  23.8284 77.5979 90.5799
RightHand  1.17755 -15.4049 -14.3135
LeftUpLeg  -13.7076 2.72549 6.41198
LeftLeg  70.8928 1.52091 5.81285
LeftFoot  6.96896 0.1117 -0.975465
LeftToes  1.06244e-005 4.65856e-005 -8.18505e-006
427
root  -13.0879 38.6346 -3.74452 166.483 -59.4603 -171.152
RightUpLeg  -14.0923 -21.9268 4.08405
RightLeg  32.8362 -3.61938 -2.78078
RightFoot  -10.9983 -0.0582349 -5.34101
RightToes  0.00048216 0.542163 -0.142577
Spine  14.603 -2.47618 10.7878
Spine1  10.4948 -0.45245 -0.481126
HEad  5.11049 9.74567 -8.58372
LeftShoulder1  9.0774 -13.712 -45.9838
LeftArm  -10.1846 12.6776 -22.2178
LeftForeArm  46.3702 -77.393 -56.5905
LeftHand  -0.25398 0.0180481 5.50724
RightShoulder  5.17702 9.46552 33.9698
RightArm  -9.33904 -23.4332 20.7581
RightForeArm  20.3135 77.5862 86.3702
RightHand  1.11557 -15.4513 -13.5722
LeftUpLeg  -18.5552 4.09336 5.44107
LeftLeg  68.1547 1.49392 4.9011
LeftFoot  4.14107 0.037595 -0.439069
LeftToes  1.06244e-005 4.65856e-005 -8.18505e-006
